<svg version="1.1" id="Layer_1"
	xmlns="http://www.w3.org/2000/svg"
	xmlns:xlink="http://www.w3.org/1999/xlink" x="0px" y="0px" width="100%" viewBox="0 0 2692 2692" enable-background="new 0 0 2692 2692" xml:space="preserve">

	<path fill="#03092B" opacity="1.000000" stroke="none" d="
M1260.000000,2694.000000 
	C840.000000,2694.000000 421.000000,2694.000000 2.000000,2694.000000 
	C2.000000,1796.666626 2.000000,899.333313 2.000000,2.000000 
	C899.333313,2.000000 1796.666626,2.000000 2694.000000,2.000000 
	C2694.000000,899.333313 2694.000000,1796.666626 2694.000000,2694.000000 
	C2216.333252,2694.000000 1738.666626,2694.000000 1260.000000,2694.000000 
M684.999634,1775.493774 
	C1223.862183,1775.493774 1762.724731,1775.493774 2302.819336,1775.493774 
	C2302.819336,1771.014771 2302.819336,1767.442627 2302.819336,1763.870483 
	C2302.819092,1730.540894 2302.584717,1697.208374 2302.992920,1663.883789 
	C2303.088623,1656.072876 2300.764404,1651.307739 2294.229736,1646.739990 
	C2089.388184,1503.558716 1884.699219,1360.159180 1679.985107,1216.795532 
	C1614.749268,1171.109985 1549.494873,1125.450562 1484.312622,1079.688599 
	C1481.371948,1077.624023 1477.195923,1076.431519 1476.043945,1071.146606 
	C1504.386719,1071.146606 1532.021973,1071.146606 1559.657349,1071.146606 
	C1586.987549,1071.146606 1614.317871,1071.146606 1641.648071,1071.146606 
	C1669.311646,1071.146606 1696.975220,1071.146606 1724.638794,1071.146606 
	C1751.968994,1071.146606 1779.299316,1071.146606 1806.629517,1071.146606 
	C1834.293091,1071.146606 1861.956665,1071.146606 1889.620239,1071.146606 
	C1917.283813,1071.146606 1944.947266,1071.146606 1972.610840,1071.146606 
	C1999.941040,1071.146606 2027.271362,1071.146606 2054.601562,1071.146606 
	C2082.265137,1071.146606 2109.928711,1071.146606 2137.592285,1071.146606 
	C2164.922607,1071.146606 2192.252686,1071.191162 2219.583008,1071.134277 
	C2247.085693,1071.077026 2274.597412,1071.388428 2301.911133,1070.940186 
	C2303.903320,1053.874878 2303.201172,989.316040 2301.141357,982.457764 
	C1668.015381,982.457764 1034.911133,982.457764 401.902954,982.457764 
	C399.957855,995.214722 400.468781,1063.411377 402.461273,1070.375854 
	C402.757874,1070.504272 403.047760,1070.652710 403.352966,1070.755737 
	C403.667786,1070.861938 403.993774,1070.947998 404.321716,1070.999023 
	C404.649323,1071.049927 404.985291,1071.048584 405.317810,1071.066406 
	C405.650574,1071.084351 405.983582,1071.110840 406.316498,1071.110840 
	C677.952576,1071.125366 949.588623,1071.138062 1221.224731,1071.151489 
	C1221.891235,1071.151489 1222.557861,1071.159302 1223.224365,1071.169678 
	C1223.557373,1071.174805 1223.893921,1071.167480 1224.222412,1071.212402 
	C1224.877441,1071.301880 1225.532471,1071.403198 1226.178711,1071.540649 
	C1226.494629,1071.607910 1226.877075,1071.689941 1227.072266,1071.906616 
	C1227.273193,1072.129883 1227.283325,1072.524902 1227.591797,1073.579346 
	C1225.021729,1075.530396 1222.274414,1077.764282 1219.381592,1079.790649 
	C1127.676392,1144.028198 1035.955444,1208.242920 944.240479,1272.466431 
	C765.724243,1397.472656 587.223877,1522.501709 408.629211,1647.395874 
	C403.232452,1651.169800 400.583099,1654.979004 400.662476,1661.954834 
	C401.056915,1696.613159 400.827332,1731.278320 400.869263,1765.941162 
	C400.872772,1768.840210 401.260376,1771.738770 401.531311,1775.493774 
	C495.827393,1775.493774 589.413452,1775.493774 684.999634,1775.493774 
z"/>
	<path fill="#F69596" opacity="1.000000" stroke="none" d="
M683.999634,1775.493774 
	C589.413452,1775.493774 495.827393,1775.493774 401.531311,1775.493774 
	C401.260376,1771.738770 400.872772,1768.840210 400.869263,1765.941162 
	C400.827332,1731.278320 401.056915,1696.613159 400.662476,1661.954834 
	C400.583099,1654.979004 403.232452,1651.169800 408.629211,1647.395874 
	C587.223877,1522.501709 765.724243,1397.472656 944.240479,1272.466431 
	C1035.955444,1208.242920 1127.676392,1144.028198 1219.381592,1079.790649 
	C1222.274414,1077.764282 1225.021729,1075.530396 1227.591797,1073.579346 
	C1227.283325,1072.524902 1227.273193,1072.129883 1227.072266,1071.906616 
	C1226.877075,1071.689941 1226.494629,1071.607910 1226.178711,1071.540649 
	C1225.532471,1071.403198 1224.877441,1071.301880 1224.222412,1071.212402 
	C1223.893921,1071.167480 1223.557373,1071.174805 1223.224365,1071.169678 
	C1222.557861,1071.159302 1221.891235,1071.151489 1221.224731,1071.151489 
	C949.588623,1071.138062 677.952576,1071.125366 406.316498,1071.110840 
	C405.983582,1071.110840 405.650574,1071.084351 405.317810,1071.066406 
	C404.985291,1071.048584 404.649323,1071.049927 404.321716,1070.999023 
	C403.993774,1070.947998 403.667786,1070.861938 403.352966,1070.755737 
	C403.047760,1070.652710 402.757874,1070.504272 402.461273,1070.375854 
	C400.468781,1063.411377 399.957855,995.214722 401.902954,982.457764 
	C1034.911133,982.457764 1668.015381,982.457764 2301.141357,982.457764 
	C2303.201172,989.316040 2303.903320,1053.874878 2301.911133,1070.940186 
	C2274.597412,1071.388428 2247.085693,1071.077026 2219.583008,1071.134277 
	C2192.252686,1071.191162 2164.922607,1071.146606 2137.592285,1071.146606 
	C2109.928711,1071.146606 2082.265137,1071.146606 2054.601562,1071.146606 
	C2027.271362,1071.146606 1999.941040,1071.146606 1972.610840,1071.146606 
	C1944.947266,1071.146606 1917.283813,1071.146606 1889.620239,1071.146606 
	C1861.956665,1071.146606 1834.293091,1071.146606 1806.629517,1071.146606 
	C1779.299316,1071.146606 1751.968994,1071.146606 1724.638794,1071.146606 
	C1696.975220,1071.146606 1669.311646,1071.146606 1641.648071,1071.146606 
	C1614.317871,1071.146606 1586.987549,1071.146606 1559.657349,1071.146606 
	C1532.021973,1071.146606 1504.386719,1071.146606 1476.043945,1071.146606 
	C1477.195923,1076.431519 1481.371948,1077.624023 1484.312622,1079.688599 
	C1549.494873,1125.450562 1614.749268,1171.109985 1679.985107,1216.795532 
	C1884.699219,1360.159180 2089.388184,1503.558716 2294.229736,1646.739990 
	C2300.764404,1651.307739 2303.088623,1656.072876 2302.992920,1663.883789 
	C2302.584717,1697.208374 2302.819092,1730.540894 2302.819336,1763.870483 
	C2302.819336,1767.442627 2302.819336,1771.014771 2302.819336,1775.493774 
	C1762.724731,1775.493774 1223.862183,1775.493774 683.999634,1775.493774 
M1233.000000,1686.012207 
	C1547.315186,1685.929077 1861.630371,1685.846069 2175.945557,1685.745483 
	C2176.212646,1685.745361 2176.539551,1685.531494 2176.730957,1685.319946 
	C2176.945557,1685.082642 2177.037598,1684.734497 2177.610107,1683.552612 
	C1902.455811,1490.864868 1627.173828,1298.087891 1351.850220,1105.281860 
	C1076.014526,1298.446655 800.997925,1491.037842 525.981323,1683.629028 
	C526.214111,1684.423462 526.446838,1685.217773 526.679565,1686.012207 
	C761.453064,1686.012207 996.226501,1686.012207 1233.000000,1686.012207 
z"/>
	<path fill="#040A2B" opacity="1.000000" stroke="none" d="
M1232.000000,1686.012207 
	C996.226501,1686.012207 761.453064,1686.012207 526.679565,1686.012207 
	C526.446838,1685.217773 526.214111,1684.423462 525.981323,1683.629028 
	C800.997925,1491.037842 1076.014526,1298.446655 1351.850220,1105.281860 
	C1627.173828,1298.087891 1902.455811,1490.864868 2177.610107,1683.552612 
	C2177.037598,1684.734497 2176.945557,1685.082642 2176.730957,1685.319946 
	C2176.539551,1685.531494 2176.212646,1685.745361 2175.945557,1685.745483 
	C1861.630371,1685.846069 1547.315186,1685.929077 1232.000000,1686.012207 
M1195.000000,1494.263916 
	C1316.958130,1494.118042 1438.916382,1493.972534 1560.874512,1493.812012 
	C1561.187012,1493.811646 1561.548462,1493.656372 1561.797485,1493.459961 
	C1562.043823,1493.265381 1562.176514,1492.926880 1562.608887,1492.274414 
	C1562.608887,1463.456055 1562.608887,1434.263794 1562.608887,1405.181519 
	C1551.489746,1403.150879 1140.955078,1403.566772 1133.764404,1405.544800 
	C1133.764404,1434.712524 1133.764404,1463.912598 1133.764404,1492.804077 
	C1134.893677,1493.414185 1135.456787,1493.982666 1136.023560,1493.986450 
	C1155.015503,1494.112183 1174.007812,1494.184082 1195.000000,1494.263916 
z"/>
	<path fill="#F69596" opacity="1.000000" stroke="none" d="
M1194.000000,1494.263916 
	C1174.007812,1494.184082 1155.015503,1494.112183 1136.023560,1493.986450 
	C1135.456787,1493.982666 1134.893677,1493.414185 1133.764404,1492.804077 
	C1133.764404,1463.912598 1133.764404,1434.712524 1133.764404,1405.544800 
	C1140.955078,1403.566772 1551.489746,1403.150879 1562.608887,1405.181519 
	C1562.608887,1434.263794 1562.608887,1463.456055 1562.608887,1492.274414 
	C1562.176514,1492.926880 1562.043823,1493.265381 1561.797485,1493.459961 
	C1561.548462,1493.656372 1561.187012,1493.811646 1560.874512,1493.812012 
	C1438.916382,1493.972534 1316.958130,1494.118042 1194.000000,1494.263916 
z"/>
</svg>
